<?xml version="1.0" encoding="utf-8"?>
<!-- Generator: Adobe Illustrator 24.0.0, SVG Export Plug-In . SVG Version: 6.00 Build 0)  -->
<svg version="1.1" id="Ebene_1" xmlns="http://www.w3.org/2000/svg" xmlns:xlink="http://www.w3.org/1999/xlink" x="0px" y="0px"
	 viewBox="0 0 572.83 572.88" style="enable-background:new 0 0 572.83 572.88;" xml:space="preserve">
<style type="text/css">
	.st0{fill:#00CC00;}
</style>
<g>
	<path class="st0" d="M280.67,572.83C123.31,569.52-3.31,439.93,0.07,280.18C3.39,122.81,133.19-3.04,292.15,0.06
		c157.34,3.06,283.99,132.83,280.61,292.6C569.43,449.99,439.67,575.67,280.67,572.83z M286.02,463.57
		c17.16,0,34.32-0.13,51.48,0.06c7.52,0.08,12.89-2.73,17.1-9.08c34.79-52.44,69.75-104.77,104.64-157.15
		c5.74-8.61,5.74-13.35,0.01-21.95c-34.89-52.37-69.85-104.71-104.64-157.14c-4.2-6.33-9.57-9.13-17.09-9.1
		c-34.15,0.13-68.3,0.12-102.46,0.01c-7.32-0.03-12.6,2.71-16.69,8.88c-35,52.7-70.14,105.31-105.22,157.96
		c-5.16,7.75-5.16,12.98-0.01,20.72c35.08,52.64,70.22,105.25,105.22,157.96c4.1,6.17,9.35,8.97,16.68,8.9
		C252.03,463.46,269.02,463.57,286.02,463.57z"/>
	<path class="st0" d="M304.73,205.2c11.79-17.62,23.53-35.17,35.62-53.25c26.48,39.72,52.63,78.96,79.23,118.87
		c-2.51,0.13-4.1,0.29-5.68,0.29c-20.16,0.02-40.33-0.07-60.49,0.09c-3.4,0.03-5.4-1.06-7.27-3.88
		C332.49,246.63,318.66,226.04,304.73,205.2z"/>
	<path class="st0" d="M419.42,302.27c-26.48,39.72-52.59,78.89-79.03,118.56c-3.23-4.78-6.21-9.14-9.15-13.53
		c-8.07-12.03-16.05-24.13-24.23-36.08c-1.73-2.52-1.98-4.27-0.14-6.98c13.38-19.7,26.52-39.56,39.89-59.26
		c1.02-1.51,3.25-3.11,4.94-3.13c21.83-0.2,43.66-0.12,65.49-0.09C417.65,301.76,418.12,301.96,419.42,302.27z"/>
	<path class="st0" d="M153.51,270.4c26.32-39.49,52.48-78.73,78.96-118.45c12.09,18.08,23.83,35.63,35.62,53.26
		c-14.3,21.37-28.43,42.56-42.7,63.66c-0.76,1.13-2.63,2.15-3.99,2.15c-21.99,0.12-43.99,0.07-65.98,0.03
		C154.99,271.05,154.57,270.77,153.51,270.4z"/>
	<path class="st0" d="M153.02,301.71c19.26,0,37.29,0.87,55.19-0.3c11.98-0.78,18.88,3.15,24.93,13.41
		c10.05,17.04,21.81,33.07,32.7,49.62c0.88,1.34,1.51,3.99,0.8,5.08c-11.1,16.99-22.45,33.83-34.17,51.35
		C206.01,381.19,179.87,341.98,153.02,301.71z"/>
	<path class="st0" d="M286.41,340.24c-11.78-17.62-23.19-34.6-34.43-51.69c-0.68-1.03-0.67-3.28,0.01-4.31
		c11.25-17.08,22.65-34.06,34.36-51.57c2.45,3.6,4.67,6.81,6.84,10.05c8.98,13.41,18.01,26.78,26.82,40.3
		c0.95,1.45,1.55,4.32,0.76,5.52C309.61,305.68,298.18,322.64,286.41,340.24z"/>
	<path class="st0" d="M261.12,140.03c17.15,0,33.37,0,50.56,0c-8.47,12.68-16.62,24.87-25.25,37.78
		C277.97,165.19,269.83,153.03,261.12,140.03z"/>
	<path class="st0" d="M286.41,395.02c8.5,12.7,16.67,24.92,25.23,37.72c-17,0-33.19,0-50.44,0
		C269.7,420.01,277.89,407.75,286.41,395.02z"/>
</g>
</svg>
